<svg width="20" height="20" viewBox="0 0 20 20" fill="none" xmlns="http://www.w3.org/2000/svg">
	<mask id="mask0_1255_161274" style="mask-type:alpha" maskUnits="userSpaceOnUse" x="0" y="0" width="20" height="20">
		<path d="M0 0H20V20H0V0Z" fill="#D9D9D9" />
	</mask>
	<g mask="url(#mask0_1255_161274)">
		<path d="M10.3004 13.2998L7.70039 10.6998C7.60039 10.5998 7.52539 10.4914 7.47539 10.3748C7.42539 10.2581 7.40039 10.1331 7.40039 9.99977C7.40039 9.86643 7.42539 9.74143 7.47539 9.62477C7.52539 9.5081 7.60039 9.39977 7.70039 9.29977L10.3004 6.69977C10.6171 6.3831 10.9794 6.31243 11.3874 6.48777C11.7961 6.66243 12.0004 6.97477 12.0004 7.42477V12.5748C12.0004 13.0248 11.7961 13.3371 11.3874 13.5118C10.9794 13.6871 10.6171 13.6164 10.3004 13.2998Z" fill="#212529" />
	</g>
</svg>