<svg width="18" height="18" viewBox="0 0 18 18" fill="none" xmlns="http://www.w3.org/2000/svg">
<path fill-rule="evenodd" clip-rule="evenodd" d="M8.16667 2.5C5.03705 2.5 2.5 5.03705 2.5 8.16667C2.5 11.2963 5.03705 13.8333 8.16667 13.8333C11.2963 13.8333 13.8333 11.2963 13.8333 8.16667C13.8333 5.03705 11.2963 2.5 8.16667 2.5ZM0.5 8.16667C0.5 3.93248 3.93248 0.5 8.16667 0.5C12.4008 0.5 15.8333 3.93248 15.8333 8.16667C15.8333 12.4008 12.4008 15.8333 8.16667 15.8333C3.93248 15.8333 0.5 12.4008 0.5 8.16667Z" fill="#212529"/>
<path fill-rule="evenodd" clip-rule="evenodd" d="M12.1679 12.1679C12.5584 11.7774 13.1916 11.7774 13.5821 12.1679L17.2071 15.7929C17.5976 16.1834 17.5976 16.8166 17.2071 17.2071C16.8166 17.5976 16.1834 17.5976 15.7929 17.2071L12.1679 13.5821C11.7774 13.1916 11.7774 12.5584 12.1679 12.1679Z" fill="#212529"/>
</svg>
