<svg width="40" height="40" viewBox="0 0 40 40" fill="none" xmlns="http://www.w3.org/2000/svg">
<path d="M39.5 20C39.5 30.7696 30.7696 39.5 20 39.5C9.23045 39.5 0.5 30.7696 0.5 20C0.5 9.23045 9.23045 0.5 20 0.5C30.7696 0.5 39.5 9.23045 39.5 20Z" stroke="#B4B4B4"/>
<path d="M20.7133 19.4086H20.3286V19.7932V26.923H18.0083V19.7932V19.4086H17.6237H16.5389V17.5369H17.6237H18.0083V17.1523V15.4433C18.0083 14.8819 18.1426 14.1877 18.5402 13.6443C18.9228 13.1213 19.5815 12.6924 20.74 12.6922C20.7402 12.6922 20.7405 12.6922 20.7408 12.6922L22.6447 12.7002V14.4961H21.3688C21.1771 14.4961 20.9151 14.543 20.6942 14.7253C20.4592 14.9192 20.3288 15.2177 20.3288 15.6005V17.1548V17.5394H20.7135H22.5964L22.4052 19.4086H20.7133Z" fill="#B4B4B4" stroke="#B4B4B4" stroke-width="0.769231"/>
</svg>
