<svg width="40" height="40" viewBox="0 0 40 40" fill="none" xmlns="http://www.w3.org/2000/svg">
<path d="M39.5 20C39.5 30.7696 30.7696 39.5 20 39.5C9.23045 39.5 0.5 30.7696 0.5 20C0.5 9.23045 9.23045 0.5 20 0.5C30.7696 0.5 39.5 9.23045 39.5 20Z" stroke="#B4B4B4"/>
<path fill-rule="evenodd" clip-rule="evenodd" d="M26.5296 26.5296C27.3498 25.7095 27.8112 24.5974 27.8125 23.4375V16.5625C27.8112 15.4026 27.3498 14.2905 26.5296 13.4704C25.7095 12.6502 24.5974 12.1888 23.4375 12.1875H16.5625C15.4026 12.1888 14.2905 12.6502 13.4704 13.4704C12.6502 14.2905 12.1888 15.4026 12.1875 16.5625V23.4375C12.1888 24.5974 12.6502 25.7095 13.4704 26.5296C14.2905 27.3498 15.4026 27.8112 16.5625 27.8125H23.4375C24.5974 27.8112 25.7095 27.3498 26.5296 26.5296ZM23.118 17.9166C23.5301 18.5333 23.75 19.2583 23.75 20C23.7489 20.9942 23.3534 21.9474 22.6504 22.6504C21.9474 23.3534 20.9942 23.7489 20 23.75C19.2583 23.75 18.5333 23.5301 17.9166 23.118C17.2999 22.706 16.8193 22.1203 16.5355 21.4351C16.2516 20.7498 16.1774 19.9958 16.3221 19.2684C16.4668 18.541 16.8239 17.8728 17.3484 17.3484C17.8728 16.8239 18.541 16.4668 19.2684 16.3221C19.9958 16.1774 20.7498 16.2516 21.4351 16.5355C22.1203 16.8193 22.706 17.2999 23.118 17.9166ZM24.842 15.4167C24.945 15.5708 25 15.7521 25 15.9375C25 16.1861 24.9012 16.4246 24.7254 16.6004C24.5496 16.7762 24.3111 16.875 24.0625 16.875C23.8771 16.875 23.6958 16.82 23.5417 16.717C23.3875 16.614 23.2673 16.4676 23.1964 16.2963C23.1254 16.125 23.1068 15.9365 23.143 15.7546C23.1792 15.5727 23.2685 15.4057 23.3996 15.2746C23.5307 15.1435 23.6977 15.0542 23.8796 15.018C24.0615 14.9818 24.25 15.0004 24.4213 15.0714C24.5926 15.1423 24.739 15.2625 24.842 15.4167ZM20 22.3077C21.2745 22.3077 22.3077 21.2745 22.3077 20C22.3077 18.7255 21.2745 17.6923 20 17.6923C18.7255 17.6923 17.6923 18.7255 17.6923 20C17.6923 21.2745 18.7255 22.3077 20 22.3077Z" fill="#B4B4B4"/>
</svg>
