<svg width="140" height="44" viewBox="0 0 140 44" fill="none" xmlns="http://www.w3.org/2000/svg">
<path d="M17.024 6.65715C14.8213 6.68783 12.8388 7.11733 11.0766 7.91498C9.34592 8.71263 8.08721 9.9091 7.30052 11.5044V28.3471H0V0.490704H6.70263V6.44239C7.20611 5.49135 7.804 4.63234 8.49629 3.86537C9.18858 3.0984 9.94381 2.45415 10.7305 1.87125C11.5172 1.31903 12.3354 0.85885 13.1535 0.582741C13.9717 0.275953 14.7584 0.122559 15.5136 0.122559C15.9227 0.122559 16.2059 0.122559 16.4262 0.122559C16.615 0.122559 16.8038 0.153237 16.9926 0.183916V6.65715H17.024Z" fill="white"/>
<path d="M31.3738 28.8688C29.0767 28.8688 26.9998 28.5006 25.1432 27.7336C23.2866 26.9667 21.7132 25.9236 20.3916 24.6044C19.0699 23.2852 18.063 21.782 17.3707 20.0333C16.6469 18.2846 16.3008 16.4745 16.3008 14.5724C16.3008 12.5783 16.6469 10.7069 17.3392 8.95821C18.0315 7.20952 19.0385 5.67558 20.3287 4.32571C21.6188 2.97585 23.2237 1.93277 25.1118 1.16579C26.9998 0.398825 29.0767 0 31.4053 0C33.7339 0 35.8108 0.398825 37.6359 1.16579C39.461 1.93277 41.0344 2.97584 42.3246 4.29503C43.6148 5.61422 44.5903 7.11749 45.2826 8.86618C45.9434 10.6149 46.2895 12.4249 46.2895 14.2963C46.2895 14.7565 46.2895 15.186 46.2581 15.6155C46.2266 16.045 46.1951 16.3825 46.1322 16.6893H24.0418C24.1363 17.7937 24.4195 18.7754 24.86 19.6038C25.3006 20.4628 25.867 21.1684 26.5593 21.782C27.2516 22.3955 28.0383 22.8557 28.8879 23.1625C29.769 23.4693 30.6815 23.6534 31.6256 23.6534C33.0731 23.6534 34.4577 23.3159 35.7478 22.6103C37.038 21.9047 37.9191 21.015 38.3911 19.8799L45.314 19.9106C43.8665 23.2239 41.9155 25.4634 39.6184 26.8133C37.3212 28.1938 34.5521 28.8688 31.3738 28.8688ZM38.7687 12.0568C38.5799 9.97061 37.7933 8.28328 36.4087 7.02545C35.0241 5.76762 33.3248 5.12336 31.3109 5.12336C30.3354 5.12336 29.4228 5.27676 28.5732 5.61422C27.7236 5.95169 26.9683 6.41187 26.3075 7.02545C25.6467 7.63902 25.1117 8.34464 24.7027 9.20364C24.2936 10.0627 24.0418 10.983 23.9789 12.0261H38.7687V12.0568Z" fill="white"/>
<path d="M63.4708 28.8688C61.1422 28.8688 59.0654 28.47 57.2088 27.7031C55.3522 26.9361 53.7788 25.8623 52.4886 24.5431C51.1984 23.2239 50.2229 21.69 49.5306 19.9413C48.8383 18.1926 48.4922 16.3826 48.4922 14.4805C48.4922 12.517 48.8383 10.6763 49.5306 8.9583C50.2229 7.2096 51.1984 5.67566 52.4886 4.35647C53.7788 3.03729 55.3522 1.96353 57.2088 1.19656C59.0654 0.429586 61.1422 0.0307617 63.4708 0.0307617C65.7994 0.0307617 67.8763 0.429586 69.7014 1.19656C71.5266 1.96353 73.1 3.03729 74.3901 4.35647C75.6803 5.67566 76.6558 7.2096 77.3481 8.9583C78.0404 10.707 78.3865 12.5477 78.3865 14.4805C78.3865 16.3826 78.0404 18.2233 77.3481 19.9413C76.6558 21.69 75.6803 23.2239 74.3901 24.5431C73.1314 25.8623 71.558 26.9361 69.7014 27.7031C67.8763 28.47 65.7994 28.8688 63.4708 28.8688ZM55.9815 14.4498C55.9815 15.677 56.1703 16.8121 56.5479 17.8245C56.9255 18.8369 57.4605 19.7266 58.1213 20.4629C58.7821 21.1991 59.5688 21.782 60.4814 22.1809C61.394 22.5797 62.3695 22.7944 63.4394 22.7944C64.4778 22.7944 65.4848 22.5797 66.3973 22.1809C67.3099 21.782 68.0966 21.1991 68.7574 20.4629C69.4182 19.7266 69.9532 18.8369 70.3308 17.7938C70.7084 16.7814 70.8972 15.6463 70.8972 14.3884C70.8972 13.192 70.7084 12.0569 70.3308 11.0445C69.9532 10.0321 69.4182 9.14237 68.7574 8.3754C68.0966 7.63911 67.2784 7.05621 66.3973 6.65739C65.4848 6.25856 64.5093 6.04381 63.4394 6.04381C62.3695 6.04381 61.394 6.25856 60.4814 6.68806C59.5688 7.11757 58.7821 7.70047 58.1213 8.43676C57.4605 9.17305 56.9255 10.0627 56.5479 11.1058C56.1703 12.1489 55.9815 13.2533 55.9815 14.4498Z" fill="white"/>
<path d="M62.6837 26.1075L56.7363 27.5187C56.8937 27.5801 57.0195 27.6415 57.1769 27.7028C59.0335 28.4698 61.1103 28.8686 63.439 28.8686C63.5963 28.8686 63.7222 28.8686 63.8795 28.8686L64.2571 27.7642C64.6033 26.8131 63.7222 25.8621 62.6837 26.1075Z" fill="white"/>
<path d="M107.211 28.3165H99.9104V12.701C99.9104 10.4615 99.5013 8.8355 98.7146 7.8231C97.9279 6.8107 96.7951 6.28916 95.379 6.28916C94.6553 6.28916 93.9 6.44255 93.1448 6.71866C92.3896 6.99477 91.6658 7.39359 91.005 7.91513C90.3442 8.43668 89.7148 9.05025 89.1799 9.75586C88.6449 10.4615 88.2359 11.2591 87.9841 12.0875V28.3472H80.6836V0.490861H87.2918V5.6449C88.3303 3.86553 89.8722 2.48498 91.8861 1.50326C93.9 0.52154 96.1343 0 98.6517 0C100.445 0 101.893 0.306788 103.026 0.951043C104.159 1.5953 105.04 2.42363 105.638 3.43603C106.267 4.47911 106.676 5.6449 106.928 6.93341C107.148 8.2526 107.274 9.57179 107.274 10.9217V28.3165H107.211Z" fill="white"/>
<path d="M125.084 28.8688C122.756 28.8688 120.679 28.47 118.822 27.7031C116.965 26.9361 115.392 25.8623 114.102 24.5431C112.812 23.2239 111.836 21.69 111.144 19.9413C110.452 18.1926 110.105 16.3826 110.105 14.4805C110.105 12.517 110.452 10.6763 111.144 8.9583C111.836 7.2096 112.812 5.67566 114.102 4.35647C115.392 3.03729 116.965 1.96353 118.822 1.19656C120.679 0.429586 122.756 0.0307617 125.084 0.0307617C127.413 0.0307617 129.49 0.429586 131.315 1.19656C133.14 1.96353 134.713 3.03729 136.003 4.35647C137.294 5.67566 138.269 7.2096 138.961 8.9583C139.654 10.707 140 12.5477 140 14.4805C140 16.3826 139.654 18.2233 138.961 19.9413C138.269 21.69 137.294 23.2239 136.003 24.5431C134.745 25.8623 133.171 26.9361 131.315 27.7031C129.49 28.47 127.413 28.8688 125.084 28.8688ZM132.542 14.3884C132.542 13.192 132.353 12.0569 131.976 11.0445C131.598 10.0321 131.063 9.14237 130.402 8.3754C129.741 7.63911 128.923 7.05621 128.042 6.65739C127.13 6.25856 126.154 6.04381 125.084 6.04381C124.014 6.04381 123.039 6.25856 122.126 6.68806C121.214 7.11757 120.427 7.70047 119.766 8.43676C119.105 9.17305 118.57 10.0627 118.193 11.1058C117.815 12.1489 117.626 13.2533 117.626 14.4498C117.626 15.677 117.815 16.8121 118.193 17.8245C118.57 18.8369 119.105 19.7266 119.766 20.4629C120.427 21.1991 121.214 21.782 122.126 22.1809C123.039 22.5797 124.014 22.7944 125.084 22.7944C126.123 22.7944 127.13 22.5797 128.042 22.1809C128.955 21.782 129.741 21.1991 130.402 20.4629C130.402 20.4629 131.629 19.3584 132.133 17.6404C132.762 16.0144 132.542 14.3884 132.542 14.3884Z" fill="white"/>
<path d="M48.8694 28.6236C37.1949 36.6308 27.7231 33.9004 19.9191 28.2555C19.4786 27.9487 19.0065 28.4702 19.2268 28.9611C24.5449 39.4839 40.4361 45.0675 51.733 37.7045L50.8834 43.3495C50.789 43.963 51.6071 44.2391 51.9533 43.7483L63.2502 27.151C63.8166 26.292 63.2187 25.1569 62.1803 25.1262L46.6982 24.6967C46.0688 24.6661 45.7541 25.4023 46.1632 25.8318L48.8694 28.6236Z" fill="#F83D13"/>
</svg>
