<svg width="97" height="36" viewBox="0 0 97 36" fill="none" xmlns="http://www.w3.org/2000/svg">
<path d="M65.541 35.9945C65.3542 35.9258 65.1674 35.8466 64.9756 35.7832C63.7841 35.3711 63.0116 34.5152 62.5724 33.3159C61.9463 31.6253 61.9362 29.8871 62.224 28.1225C62.3603 27.2824 62.5774 26.4688 62.9561 25.7239C63.2337 25.1797 63.6174 24.6936 63.986 24.2129C64.3647 23.7215 64.8695 23.3834 65.4249 23.1403C66.4347 22.6913 67.4646 22.5433 68.5501 22.8286C69.5851 23.1034 70.3575 23.7426 70.9129 24.6566C71.3118 25.3118 71.5591 26.0409 71.6803 26.8175C71.9126 28.3127 71.8267 29.8025 71.539 31.2766C71.3572 32.217 71.0139 33.1046 70.4888 33.9023C69.7466 35.0277 68.7016 35.6511 67.4495 35.9364C67.3838 35.9523 67.3232 35.9787 67.2627 35.9998C66.6871 35.9945 66.1115 35.9945 65.541 35.9945ZM68.8126 28.5293C68.8126 28.2493 68.8429 27.964 68.8025 27.6892C68.7571 27.3722 68.6662 27.0552 68.5703 26.7488C68.2371 25.6974 67.1768 25.5495 66.5104 26.0303C65.9449 26.4371 65.647 27.05 65.4249 27.6998C65.2078 28.3179 65.0765 28.9625 65.0563 29.6282C65.0311 30.4841 65.0412 31.3347 65.4249 32.1219C65.8995 33.0993 66.9446 33.1363 67.6161 32.5498C68.0149 32.2011 68.2674 31.7521 68.4289 31.2502C68.7066 30.3731 68.8429 29.4591 68.8126 28.5293Z" fill="white"/>
<path d="M0.0585938 34.9912C0.174715 34.5263 0.300934 34.0666 0.406958 33.6017C0.533177 33.0681 0.639201 32.5239 0.760371 31.9692C0.810858 31.9903 0.861346 32.0062 0.896687 32.0326C1.88624 32.73 2.98687 32.9043 4.14809 32.767C4.87511 32.6824 5.57688 32.0801 5.68796 31.4409C5.83437 30.5691 5.63242 29.8348 4.87511 29.3487C4.40557 29.0475 3.93099 28.7464 3.45641 28.4558C2.35578 27.7743 1.66915 26.8022 1.58332 25.4338C1.51264 24.3032 1.55303 23.1778 1.99732 22.1159C2.23461 21.5506 2.56278 21.0434 3.01212 20.6313C4.01177 19.7067 5.21337 19.4267 6.49576 19.4584C7.19754 19.4796 7.89931 19.5799 8.59604 19.6962C8.90402 19.749 9.19179 19.9181 9.48967 20.0449C9.64618 20.1083 9.65628 20.2245 9.61589 20.3883C9.44423 21.1227 9.27762 21.857 9.11606 22.5914C9.06558 22.808 9.02519 23.0299 8.97975 23.2571C8.59099 23.088 8.25273 22.9137 7.89426 22.7975C7.00568 22.5016 6.1171 22.4646 5.22852 22.8186C4.56208 23.088 4.38538 23.9492 4.54694 24.5304C4.66811 24.9689 4.95589 25.27 5.31435 25.5025C5.71825 25.7666 6.14739 25.9938 6.5513 26.2527C7.70241 26.9818 8.45972 27.9909 8.63643 29.4279C8.73741 30.2838 8.70206 31.1239 8.5607 31.9745C8.43953 32.6771 8.19719 33.327 7.81853 33.9134C7.43483 34.5104 6.9249 34.9754 6.30391 35.3029C5.61223 35.6622 4.87006 35.8471 4.1077 35.9422C4.06731 35.9475 4.03197 35.9739 3.99662 35.995C3.62806 35.995 3.25446 35.995 2.8859 35.995C2.83541 35.9739 2.78492 35.9422 2.72939 35.9316C2.02256 35.7309 1.31069 35.5407 0.603859 35.3399C0.417055 35.2871 0.240349 35.2184 0.0585938 35.155C0.0585938 35.0969 0.0585938 35.044 0.0585938 34.9912Z" fill="white"/>
<path d="M62.8651 0.0158498C63.4659 0.174348 64.0667 0.327562 64.6625 0.496626C64.9351 0.575875 65.2027 0.686824 65.4652 0.797772C65.5207 0.824188 65.5965 0.929853 65.5864 0.982686C65.4349 2.05519 65.2734 3.12769 65.1118 4.21604C64.7988 4.07339 64.5211 3.95188 64.2384 3.8198C63.6578 3.55035 63.0418 3.39714 62.4057 3.40242C61.6383 3.4077 60.9516 3.65602 60.3458 4.18434C59.5329 4.8923 59.1038 5.81687 58.8059 6.85239C58.4777 7.98829 58.4474 9.14004 58.5686 10.2971C58.6544 11.0843 58.9473 11.8081 59.4925 12.3734C59.856 12.7485 60.3155 12.981 60.8204 13.0655C61.4363 13.1659 62.0422 13.113 62.6278 12.87C63.0469 12.701 63.471 12.5372 63.9253 12.3575C63.8143 13.0813 63.7032 13.8104 63.5972 14.5342C63.5467 14.8882 63.5012 15.2475 63.4609 15.6067C63.4407 15.7864 63.3649 15.892 63.1933 15.9396C61.7443 16.3358 60.2902 16.5577 58.8362 15.9977C57.9426 15.6543 57.1802 15.0943 56.6551 14.2489C56.3522 13.7629 56.0543 13.2504 55.8675 12.7062C55.6555 12.0775 55.504 11.4013 55.4485 10.7356C55.3778 9.86913 55.3727 8.99211 55.4485 8.12565C55.5242 7.2909 55.711 6.46671 55.9029 5.6478C56.0796 4.88173 56.4077 4.16849 56.7864 3.48167C57.3266 2.51483 58.0183 1.68536 58.9069 1.05665C59.6743 0.517759 60.5427 0.221897 61.4514 0.0581158C61.5171 0.0475493 61.5777 0.021133 61.6382 -6.29815e-10C62.0573 0.0158498 62.4612 0.0158498 62.8651 0.0158498Z" fill="white"/>
<path d="M96.9947 35.3614C96.9694 35.3614 96.9442 35.3561 96.9189 35.3561C96.5958 35.3455 96.5958 35.3455 96.5958 34.9968C96.5958 34.5636 96.5958 34.1356 96.5958 33.7024C96.5958 33.6179 96.5958 33.5281 96.5958 33.4435C96.5756 33.4383 96.5504 33.4383 96.5302 33.433C96.4696 33.7447 96.409 34.0511 96.3484 34.3628C96.2979 34.6217 96.2475 34.8806 96.202 35.1395C96.1768 35.298 96.101 35.3614 95.9445 35.3614C95.788 35.3614 95.7173 35.298 95.687 35.1395C95.6164 34.7432 95.5406 34.347 95.4649 33.9507C95.4346 33.7922 95.4043 33.6337 95.374 33.4752C95.3538 33.4752 95.3286 33.4805 95.3084 33.4805C95.3033 33.5703 95.2932 33.6602 95.2882 33.75C95.2882 34.2096 95.2831 34.664 95.2882 35.1236C95.2882 35.2874 95.2377 35.3614 95.0711 35.3614C94.9146 35.3614 94.8691 35.2874 94.8691 35.1342C94.8742 34.4421 94.8742 33.7447 94.8691 33.0473C94.8691 32.8782 94.9297 32.8148 95.0913 32.8096C95.5356 32.7937 95.5457 32.7937 95.6366 33.2533C95.7224 33.6813 95.8032 34.1145 95.8839 34.5425C95.894 34.6006 95.9193 34.6534 95.99 34.7168C96.0152 34.6059 96.0405 34.4949 96.0606 34.384C96.1465 33.956 96.2374 33.5281 96.3131 33.0948C96.3484 32.8888 96.4292 32.7779 96.6463 32.8096C96.7624 32.8254 96.8785 32.8201 96.9997 32.8254C96.9947 33.6707 96.9947 34.516 96.9947 35.3614Z" fill="white"/>
<path d="M9.87869 16.0294C10.4441 12.0986 11.0046 8.21543 11.565 4.32695C11.5498 4.32166 11.5347 4.31638 11.5145 4.3111C11.4388 4.51715 11.3529 4.71791 11.2873 4.92396C11.0147 5.76928 10.742 6.6146 10.4744 7.4652C10.2119 8.29467 9.94937 9.12943 9.68179 9.9589C9.45964 10.6563 9.2274 11.3537 9.0002 12.0511C8.69223 12.9968 8.3893 13.9425 8.08133 14.8882C7.97531 15.2105 7.87938 15.538 7.76326 15.855C7.73802 15.929 7.64714 16.0241 7.58655 16.0241C6.95041 16.0346 6.30922 16.0294 5.62763 16.0294C5.54181 12.162 5.45598 8.31581 5.3651 4.4696C5.34995 4.46431 5.33481 4.45903 5.31966 4.45375C5.29947 4.55413 5.26917 4.65451 5.25403 4.75489C5.05208 6.05457 4.85518 7.35425 4.65322 8.65394C4.47652 9.78984 4.29476 10.9205 4.11301 12.0564C3.91611 13.3191 3.72425 14.587 3.5223 15.8497C3.51221 15.9184 3.42133 16.0241 3.36579 16.0241C2.49741 16.0346 1.63407 16.0241 0.765682 16.0241C0.750536 16.0241 0.73539 16.0082 0.674805 15.9713C0.73539 15.6067 0.795975 15.221 0.85656 14.8353C1.02317 13.6994 1.18473 12.5635 1.36144 11.4276C1.54824 10.2072 1.75019 8.98678 1.94204 7.76107C2.14904 6.40855 2.35604 5.05604 2.55799 3.70352C2.71955 2.60989 2.88111 1.51625 3.04267 0.40677C4.50681 0.40677 5.9558 0.40677 7.45528 0.40677C7.49063 3.55031 7.52092 6.69385 7.55626 9.8321C7.5815 9.83739 7.6017 9.84267 7.62694 9.84795C7.70267 9.63134 7.77841 9.41473 7.84909 9.19283C8.05104 8.55355 8.25299 7.909 8.44484 7.26444C8.68718 6.46138 8.91437 5.65305 9.15672 4.85527C9.31323 4.33751 9.48993 3.82504 9.64644 3.30728C9.90393 2.45667 10.1614 1.60607 10.4088 0.744899C10.4795 0.491302 10.5704 0.364504 10.8682 0.369787C12.2213 0.39092 13.5794 0.380354 14.9325 0.380354C15.0335 0.380354 15.1294 0.380354 15.2708 0.380354C15.2253 0.6498 15.1849 0.887547 15.1496 1.12529C14.9476 2.47781 14.7457 3.83032 14.5437 5.18284C14.3014 6.76781 14.0591 8.35807 13.8167 9.94305C13.6097 11.2956 13.4128 12.6481 13.2058 14.0006C13.1149 14.6082 13.0241 15.2157 12.918 15.818C12.9029 15.8973 12.812 16.0188 12.7565 16.0188C11.8124 16.0346 10.8632 16.0294 9.87869 16.0294Z" fill="white"/>
<path d="M87.0492 15.9927C87.0997 15.6228 87.1502 15.2583 87.1956 14.8937C87.1805 14.8832 87.1653 14.8673 87.1502 14.8568C87.0846 14.9202 87.0088 14.9836 86.9482 15.0522C85.8981 16.1829 84.6359 16.4523 83.2324 16.0032C82.5912 15.7972 82.0812 15.3375 81.6925 14.7511C80.9907 13.6892 80.7282 12.4951 80.6928 11.2219C80.6625 10.049 80.7888 8.90253 81.1119 7.78248C81.3997 6.79451 81.8086 5.86466 82.4094 5.04047C82.9092 4.35365 83.5151 3.77249 84.2775 3.41851C84.9035 3.12793 85.5598 3.02755 86.2465 3.15435C87.0947 3.31284 87.751 3.78305 88.2862 4.46988C88.3619 4.57026 88.4831 4.63366 88.5992 4.72347C88.8163 3.30756 89.0334 1.86523 89.2606 0.396484C90.24 0.396484 91.2346 0.396484 92.2646 0.396484C92.1889 0.834995 92.1081 1.25766 92.0475 1.68032C91.8607 2.92717 91.684 4.1793 91.4972 5.43143C91.2548 7.09037 91.0074 8.74403 90.7601 10.403C90.543 11.8612 90.3208 13.3193 90.1037 14.7775C90.0532 15.1262 90.0128 15.4749 89.9674 15.8236C89.9523 15.9398 89.927 16.0402 89.7705 16.0349C88.887 16.0244 88.0034 16.0296 87.1199 16.0244C87.1098 16.0244 87.0947 16.0085 87.0492 15.9927ZM83.8483 10.2815C83.813 11.0951 83.8837 11.5706 84.1613 12.1782C84.2623 12.4 84.3986 12.6431 84.5854 12.7752C85.3276 13.2982 86.0546 13.0869 86.6352 12.548C87.2108 12.0144 87.5036 11.3064 87.6702 10.5245C87.857 9.6686 87.9378 8.80743 87.8116 7.93569C87.7359 7.42322 87.5995 6.91074 87.2057 6.58318C86.509 6.00731 85.8375 6.1024 85.1711 6.62545C84.6915 7.00056 84.3936 7.56058 84.2118 8.16287C83.9897 8.90253 83.8079 9.65275 83.8483 10.2815Z" fill="white"/>
<path d="M80.1373 24.1549C80.2535 23.2938 80.3696 22.4326 80.4908 21.5767C80.5665 21.0537 80.6574 20.5359 80.7281 20.0129C80.7483 19.8649 80.8088 19.8174 80.9401 19.8174C81.7328 19.8174 82.5204 19.8227 83.313 19.8174C83.515 19.8174 83.5352 19.9389 83.5099 20.0921C83.4443 20.5253 83.3686 20.9586 83.308 21.3918C83.1212 22.739 82.9445 24.0915 82.7577 25.4388C82.6011 26.5588 82.4345 27.6842 82.278 28.8042C82.0761 30.2677 81.8741 31.7258 81.6722 33.1893C81.5762 33.8656 81.4753 34.5471 81.3945 35.2234C81.3743 35.403 81.3087 35.4611 81.137 35.4611C80.4049 35.4558 79.6729 35.4558 78.9408 35.4611C78.7388 35.4611 78.6934 35.3713 78.7237 35.1864C78.7641 34.9169 78.7944 34.6528 78.8297 34.3833C78.8095 34.3675 78.7843 34.3516 78.7641 34.3358C78.5975 34.489 78.4309 34.6422 78.2693 34.806C77.4716 35.609 76.0933 35.8732 75.0785 35.4083C74.1344 34.9751 73.579 34.2037 73.2256 33.2369C72.6652 31.7047 72.6652 30.1303 72.8924 28.5295C73.0287 27.5521 73.2862 26.6222 73.6749 25.7293C74.1445 24.6463 74.8008 23.7111 75.755 23.0402C76.4063 22.5858 77.1434 22.4854 77.9058 22.5911C78.6884 22.6968 79.2538 23.1775 79.7486 23.7745C79.8546 23.9066 79.9556 24.044 80.0566 24.1814C80.0818 24.1708 80.1121 24.1602 80.1373 24.1549ZM75.6944 29.7869C75.6944 30.8383 75.7449 31.1183 76.0125 31.71C76.3356 32.4232 77.2899 32.7138 77.926 32.2806C78.3602 31.99 78.6985 31.6043 78.8903 31.0971C79.0165 30.7537 79.1478 30.4103 79.2336 30.0563C79.5063 28.8993 79.6123 27.7423 79.1932 26.5852C78.9206 25.835 78.138 25.5286 77.512 25.7399C76.7345 26.0041 76.3659 26.6592 76.1084 27.383C75.8156 28.1913 75.644 29.0367 75.6944 29.7869Z" fill="white"/>
<path d="M22.9803 16.0135C22.1422 16.0135 21.3193 16.0135 20.4862 16.0135C20.4862 15.6014 20.4862 15.1999 20.4862 14.8089C20.2742 15.0044 20.0672 15.2157 19.8501 15.4059C19.012 16.1456 18.0174 16.3305 16.9723 16.2248C16.1241 16.135 15.4728 15.6701 15.0487 14.8723C14.4479 13.7576 14.4277 12.5847 14.7054 11.3748C14.8367 10.7936 15.0639 10.2653 15.4021 9.78983C15.8111 9.21395 16.3362 8.79129 16.9521 8.49014C18.2193 7.86672 19.5573 7.78747 20.9204 7.9354C21.1072 7.95653 21.1931 7.9037 21.2082 7.71879C21.2335 7.47576 21.2789 7.22744 21.2637 6.98441C21.2385 6.59874 21.0567 6.31872 20.6882 6.17608C19.9309 5.87493 19.1483 5.92248 18.3708 6.0123C17.669 6.09154 16.9723 6.20249 16.3109 6.48251C16.2453 6.50892 16.1695 6.50364 16.0736 6.51949C16.1645 5.95418 16.2503 5.42057 16.3311 4.88696C16.3816 4.53827 16.422 4.18957 16.4725 3.84616C16.4826 3.78276 16.5331 3.69294 16.5835 3.67181C17.5277 3.3601 18.4869 3.12235 19.4815 3.02197C20.355 2.93216 21.2133 3.01669 22.0413 3.30727C22.632 3.51331 23.1419 3.87786 23.5256 4.42203C24.1567 5.33076 24.2173 6.37156 24.1062 7.42293C23.9648 8.80186 23.7477 10.1702 23.571 11.5439C23.4246 12.6745 23.2782 13.8051 23.1318 14.9357C23.0863 15.295 23.0308 15.649 22.9803 16.0135ZM20.0419 10.3076C20.0369 10.2917 20.0369 10.2812 20.0318 10.2653C19.6431 10.334 19.2543 10.3815 18.8706 10.4714C17.669 10.7461 17.2853 11.7446 17.5832 12.8435C17.6438 13.076 17.8861 13.3296 18.1032 13.4247C18.7949 13.7311 19.4058 13.4828 19.9056 12.9492C20.5216 12.2835 20.7286 11.4382 20.7538 10.54C20.7538 10.4714 20.6579 10.3551 20.5923 10.3446C20.4105 10.3076 20.2237 10.3129 20.0419 10.3076Z" fill="white"/>
<path d="M66.1922 6.52964C66.3336 5.55224 66.4699 4.62767 66.6011 3.71366C67.7775 3.28572 68.964 2.99514 70.1858 2.98985C71.2965 2.98457 72.382 3.16949 73.2605 3.98839C73.7249 4.42162 74.0026 4.97108 74.1339 5.61035C74.3005 6.43982 74.2601 7.27458 74.149 8.10405C73.9572 9.55695 73.7401 11.0046 73.5482 12.4575C73.3968 13.5986 73.2605 14.7345 73.1191 15.8757C73.114 15.918 73.1039 15.9603 73.0938 16.0131C72.2608 16.0131 71.4429 16.0131 70.5846 16.0131C70.6048 15.5957 70.62 15.1942 70.6402 14.7557C70.3827 15.004 70.1656 15.2312 69.9333 15.4372C69.2618 16.0395 68.449 16.2139 67.5958 16.2561C66.9344 16.2878 66.3184 16.124 65.8034 15.6908C65.3339 15.2998 65.0108 14.7715 64.8341 14.1639C64.5463 13.1654 64.5867 12.1563 64.8492 11.1736C65.1067 10.2068 65.6318 9.41958 66.4497 8.85427C67.4493 8.16217 68.5601 7.89272 69.7415 7.88744C70.1757 7.88744 70.6149 7.91385 71.0491 7.94027C71.1955 7.95084 71.2965 7.93499 71.3116 7.75007C71.3217 7.61799 71.3621 7.49119 71.3773 7.35911C71.448 6.71455 71.2511 6.28133 70.5695 6.09113C69.8828 5.89565 69.1811 5.90621 68.4944 6.01716C67.8028 6.12811 67.1212 6.31831 66.4345 6.47152C66.3639 6.48737 66.2982 6.50322 66.1922 6.52964ZM70.8875 10.3759C70.7411 10.3547 70.62 10.3125 70.4988 10.3177C69.9889 10.36 69.4789 10.3759 68.9791 10.4709C67.8633 10.677 67.3989 11.6702 67.6159 12.6846C67.6866 13.0175 67.8633 13.3133 68.2117 13.4454C68.8428 13.6885 69.6556 13.4243 70.0949 12.8643C70.6603 12.151 70.8118 11.3057 70.8875 10.3759Z" fill="white"/>
<path d="M41.5695 10.7781C41.5089 11.4649 41.5493 12.1094 41.9935 12.6378C42.3419 13.0499 42.8215 13.2295 43.3214 13.3299C44.0383 13.4725 44.7653 13.462 45.4721 13.277C46.1032 13.1133 46.7242 12.8861 47.3654 12.6853C47.2846 13.1978 47.1988 13.742 47.118 14.2861C47.0524 14.7088 46.9817 15.1368 46.9312 15.5594C46.911 15.7073 46.8505 15.776 46.7192 15.8077C46.0729 15.9451 45.4267 16.1142 44.7754 16.2251C43.7556 16.3942 42.7408 16.2938 41.7563 16.0085C40.9434 15.7707 40.2467 15.3058 39.7014 14.6084C39.0653 13.8001 38.7926 12.8438 38.6412 11.8347C38.4594 10.6196 38.5654 9.41498 38.8128 8.22097C39.035 7.1379 39.4288 6.13936 40.0397 5.22536C40.5849 4.40645 41.2716 3.7619 42.1299 3.36565C43.175 2.87959 44.2655 2.82676 45.3712 3.21772C46.1537 3.49245 46.7747 3.97851 47.2342 4.66005C47.6078 5.20951 47.835 5.8435 47.9258 6.53032C48.1025 7.87227 47.9612 9.19309 47.6885 10.5033C47.6431 10.7147 47.5573 10.7675 47.3654 10.7622C45.558 10.7569 43.7455 10.7569 41.938 10.7569C41.8118 10.7622 41.6957 10.7728 41.5695 10.7781ZM41.8017 8.19983C42.9023 8.19983 43.9727 8.19983 45.038 8.19455C45.0834 8.19455 45.1692 8.0836 45.1692 8.02549C45.1591 7.66094 45.1288 7.29111 45.1036 6.92657C45.0682 6.38768 44.3816 5.89105 43.907 5.88048C43.3416 5.86992 42.8821 6.03898 42.5085 6.49334C42.1097 6.96883 41.9077 7.52886 41.8017 8.19983Z" fill="white"/>
<path d="M33.456 33.5858C33.2995 33.8024 33.143 34.0138 32.9916 34.2356C32.6129 34.7904 32.1383 35.2448 31.5476 35.5195C30.7903 35.8735 29.9875 35.9474 29.2252 35.567C28.6648 35.287 28.3063 34.764 28.0539 34.167C27.7106 33.3586 27.5843 32.5027 27.5793 31.6257C27.5742 30.6377 27.6702 29.6603 27.8166 28.6829C27.9983 27.4678 28.1246 26.2421 28.2811 25.0216C28.3618 24.3771 28.4578 23.7325 28.5335 23.088C28.5537 22.94 28.6092 22.8925 28.7456 22.8925C29.6291 22.8925 30.5126 22.8978 31.3962 22.8925C31.6132 22.8925 31.6132 23.0034 31.588 23.1778C31.4012 24.4352 31.2144 25.6979 31.0377 26.9606C30.8862 28.049 30.7449 29.1373 30.6287 30.2257C30.5884 30.5902 30.6085 30.9706 30.6742 31.3246C30.755 31.7261 30.9923 32.0378 31.4163 32.1276C32.0323 32.2544 32.5372 32.0589 32.9461 31.5623C33.5772 30.7962 33.7842 29.8611 33.9306 28.8996C34.1073 27.7003 34.2891 26.501 34.4658 25.3017C34.5718 24.5726 34.6829 23.8435 34.7788 23.1091C34.799 22.94 34.8596 22.8872 35.0161 22.8872C35.8391 22.8925 36.6671 22.8925 37.49 22.8872C37.6869 22.8872 37.7323 22.9559 37.702 23.1567C37.4446 24.8948 37.1972 26.633 36.9498 28.3712C36.7428 29.8136 36.5307 31.2559 36.3439 32.7035C36.2278 33.5647 36.147 34.4311 36.0562 35.2976C36.041 35.4561 35.9855 35.5089 35.8391 35.5089C35.0716 35.5036 34.3093 35.5036 33.5419 35.5089C33.3399 35.5089 33.3298 35.4032 33.35 35.2395C33.4056 34.8115 33.4611 34.3836 33.5116 33.9556C33.5267 33.8341 33.5267 33.7179 33.5318 33.5964C33.5015 33.6017 33.4813 33.5911 33.456 33.5858Z" fill="white"/>
<path d="M17.8854 32.3069C17.8349 32.6187 17.7793 32.9198 17.7339 33.221C17.6329 33.8655 17.5319 34.5048 17.4512 35.1493C17.4259 35.3501 17.33 35.4611 17.1583 35.498C16.3909 35.6513 15.6286 35.8309 14.8561 35.9313C14.0534 36.0316 13.2607 35.8784 12.4983 35.609C11.9127 35.4029 11.3927 35.0648 10.9686 34.584C10.2163 33.7229 9.85784 32.6821 9.73667 31.5409C9.60035 30.2518 9.63569 28.9785 9.90832 27.7105C10.085 26.8758 10.3476 26.0674 10.7464 25.3172C11.2816 24.3292 11.9834 23.4945 12.9881 23.0137C13.8766 22.5858 14.8056 22.4907 15.7649 22.7971C16.4263 23.0084 16.9968 23.3571 17.436 23.9013C17.8601 24.4243 18.1227 25.0319 18.2893 25.6976C18.5871 26.8969 18.4912 28.0856 18.2994 29.2849C18.259 29.5544 18.2034 29.8238 18.1883 30.0933C18.1731 30.331 18.0823 30.405 17.8601 30.405C16.1839 30.3944 14.5128 30.3997 12.8366 30.3997C12.4226 30.3997 12.4176 30.3997 12.4226 30.8329C12.4277 31.3612 12.5135 31.8737 12.8568 32.2805C13.0133 32.4654 13.2153 32.6398 13.4273 32.7402C14.3916 33.2051 15.3913 33.1417 16.3859 32.8511C16.8807 32.7085 17.3603 32.4971 17.8854 32.3069ZM14.2503 27.8479C14.2503 27.8532 14.2503 27.8532 14.2503 27.8479C14.6945 27.8532 15.1388 27.8479 15.5882 27.8532C15.7396 27.8532 15.8305 27.8056 15.8204 27.6313C15.7952 27.2509 15.7952 26.8599 15.7346 26.4848C15.6437 25.9618 15.2903 25.6606 14.8208 25.5497C14.3058 25.4229 13.8464 25.5814 13.4677 25.9829C13.0436 26.432 12.8467 26.992 12.7053 27.5837C12.6599 27.7633 12.7104 27.8479 12.8972 27.8479C13.3415 27.8479 13.7959 27.8479 14.2503 27.8479Z" fill="white"/>
<path d="M51.7327 32.3176C51.7377 32.3862 51.7478 32.4391 51.7428 32.4866C51.6065 33.3901 51.4702 34.2935 51.3389 35.1969C51.3136 35.3554 51.243 35.44 51.0915 35.4875C49.6274 35.9366 48.1582 36.1426 46.6486 35.6777C45.5682 35.3449 44.7503 34.6792 44.2302 33.6489C43.8364 32.8723 43.6698 32.0164 43.5789 31.1447C43.4527 29.9401 43.589 28.7566 43.8465 27.5838C44.2252 25.8826 44.9169 24.3663 46.3255 23.3519C47.3504 22.6175 48.4964 22.4167 49.7182 22.8077C50.6926 23.1194 51.3843 23.7693 51.8539 24.6938C52.1871 25.3489 52.3234 26.0675 52.3537 26.8018C52.3991 27.906 52.3032 28.9944 52.0811 30.0775C52.0306 30.3258 51.9397 30.405 51.6973 30.3997C50.0313 30.3892 48.3652 30.3945 46.6991 30.3945C46.3204 30.3945 46.3103 30.405 46.3103 30.8118C46.3103 31.6255 46.5678 32.3123 47.2746 32.7138C47.8098 33.0202 48.4056 33.0889 49.0114 33.0678C49.9151 33.0361 50.7633 32.7614 51.5762 32.3704C51.6216 32.3493 51.6721 32.3387 51.7327 32.3176ZM48.1834 27.8479C48.1834 27.8532 48.1834 27.8532 48.1834 27.8479C48.6227 27.8532 49.0568 27.8426 49.4961 27.8532C49.6778 27.8585 49.7586 27.7898 49.7536 27.5996C49.7435 27.309 49.7687 27.0185 49.7334 26.7332C49.592 25.6871 48.5065 25.164 47.6684 25.7399C47.0272 26.1784 46.7698 26.8652 46.6132 27.6155C46.5779 27.7898 46.6587 27.8532 46.8202 27.8532C47.2746 27.8479 47.729 27.8479 48.1834 27.8479Z" fill="white"/>
<path d="M91.5673 32.2754C91.4108 33.2898 91.2644 34.2672 91.1028 35.2446C91.0877 35.3344 90.9816 35.4453 90.8958 35.4718C89.4569 35.9156 88.018 36.1322 86.5286 35.7095C85.3472 35.3767 84.5041 34.6423 83.9487 33.5275C83.5903 32.809 83.459 32.0112 83.3732 31.2187C83.2268 29.9085 83.3833 28.6194 83.671 27.3461C83.8528 26.5483 84.1507 25.7875 84.5647 25.0902C85.0897 24.192 85.7663 23.4365 86.7003 22.998C87.6444 22.5542 88.6188 22.4908 89.6235 22.8501C90.5172 23.1671 91.1584 23.7693 91.5976 24.6199C91.946 25.2962 92.0823 26.0411 92.1378 26.8019C92.1984 27.6684 92.1025 28.5243 91.9712 29.3749C91.9359 29.6073 91.8904 29.8451 91.8753 30.0776C91.8551 30.3576 91.7087 30.3998 91.4714 30.3998C90.1839 30.3893 88.8965 30.3946 87.6091 30.3946C87.1799 30.3946 86.7508 30.3998 86.3216 30.3946C86.1803 30.3946 86.0995 30.4315 86.0944 30.6006C86.0692 31.4142 86.2308 32.1644 86.9376 32.6241C87.2557 32.8301 87.6444 32.9675 88.018 33.0203C89.0934 33.1683 90.1284 32.9675 91.1079 32.4762C91.2442 32.4022 91.3956 32.3494 91.5673 32.2754ZM87.9372 27.848C87.9372 27.8533 87.9372 27.8533 87.9372 27.848C88.3916 27.8533 88.846 27.848 89.2954 27.8533C89.4519 27.8533 89.5276 27.7952 89.5226 27.6261C89.5125 27.3567 89.5276 27.0819 89.5175 26.8072C89.5024 26.4427 89.3559 26.1045 89.1035 25.8774C88.3613 25.2222 87.498 25.5023 86.983 26.1732C86.6751 26.58 86.5337 27.0714 86.3974 27.5574C86.3418 27.7529 86.3873 27.8533 86.6094 27.848C87.0487 27.8427 87.493 27.848 87.9372 27.848Z" fill="white"/>
<path d="M62.5121 23.7536C62.2748 23.6373 62.0376 23.5158 61.7952 23.3996C61.1995 23.1196 60.5835 22.9135 59.9221 22.9452C59.0941 22.9875 58.4024 23.3468 57.8471 23.9808C56.9787 24.9687 56.6505 26.1944 56.4536 27.4783C56.2769 28.6247 56.3072 29.7606 56.6808 30.8648C57.1251 32.1857 58.3166 32.9993 59.7656 32.5872C60.326 32.4287 60.8662 32.1804 61.4317 31.9638C61.3509 32.5872 61.2651 33.2317 61.1793 33.8816C61.1187 34.3254 61.053 34.7692 61.0026 35.213C60.9874 35.3715 60.9167 35.4401 60.7804 35.4824C59.4627 35.8998 58.1298 36.09 56.7919 35.5986C56.1608 35.3662 55.6105 34.9858 55.1409 34.4733C54.5755 33.8605 54.1918 33.1314 53.9343 32.3389C53.7071 31.652 53.5758 30.9388 53.5203 30.1992C53.4092 28.5719 53.5001 26.9605 53.904 25.3861C54.0959 24.6359 54.4089 23.9174 54.7169 23.2094C55.0602 22.4169 55.5701 21.7407 56.1759 21.1542C57.3523 20.0077 58.7407 19.4953 60.3462 19.6326C61.2197 19.7066 62.0275 20.0236 62.8403 20.33C62.9059 20.3564 62.9766 20.4938 62.9665 20.5625C62.8353 21.6086 62.6888 22.6547 62.5475 23.6955C62.5475 23.7219 62.5323 23.7324 62.5121 23.7536Z" fill="white"/>
<path d="M31.9674 6.20766C31.5483 6.15482 31.1848 6.09671 30.8163 6.06501C30.1549 6.01218 29.4935 5.91179 28.8473 6.18124C28.4737 6.33446 28.3222 6.64088 28.2919 7.016C28.2616 7.38582 28.3878 7.69754 28.7261 7.88773C29.2815 8.19945 29.8419 8.52172 30.3821 8.85985C31.2353 9.38818 31.6594 10.2071 31.8109 11.2056C31.9472 12.1196 31.8563 13.0231 31.5786 13.8842C31.3817 14.4918 31.0081 14.9884 30.4881 15.3794C29.6096 16.0398 28.6049 16.1824 27.58 16.23C26.4592 16.2828 25.3485 16.1455 24.2478 15.9289C24.0661 15.8919 24.0207 15.8285 24.056 15.633C24.1923 14.793 24.3084 13.9529 24.4347 13.1129C24.4397 13.0706 24.4548 13.0283 24.4599 12.9861C24.9547 13.1129 25.4343 13.2978 25.9291 13.3453C26.6006 13.414 27.2973 13.4669 27.9587 13.3665C28.7311 13.245 29.0139 12.8012 28.8321 11.9136C28.8018 11.7604 28.6706 11.5966 28.5393 11.512C28.1657 11.2637 27.782 11.0313 27.3831 10.8252C26.5198 10.3709 25.7877 9.75801 25.4192 8.8123C25.096 7.98283 25.096 7.10053 25.2677 6.21822C25.399 5.5314 25.6464 4.90798 26.0856 4.38493C26.4491 3.95171 26.9085 3.63999 27.4235 3.43395C28.2414 3.10638 29.0947 2.96902 29.9681 3.02714C30.7052 3.07469 31.4373 3.17507 32.1744 3.25432C32.2905 3.26488 32.3915 3.28602 32.3662 3.45508C32.24 4.35323 32.1088 5.26195 31.9674 6.20766Z" fill="white"/>
<path d="M26.1507 32.2493C26.1406 32.3285 26.1255 32.4447 26.1103 32.5662C26.0043 33.3746 25.8831 34.1829 25.8074 34.9965C25.772 35.3611 25.5953 35.5302 25.2975 35.6094C24.5704 35.7996 23.8333 35.9423 23.0811 35.8947C21.9299 35.8207 21.0161 35.2871 20.3648 34.3044C19.1329 32.4447 19.0017 30.3737 19.3702 28.2128C19.5469 27.1562 19.9104 26.1788 20.4355 25.2754C20.8091 24.6308 21.2988 24.0708 21.8946 23.627C22.8084 22.9507 23.8232 22.5967 24.944 22.6813C25.7316 22.7394 26.4688 23.0141 27.1655 23.3998C27.2463 23.4421 27.3372 23.5953 27.322 23.6745C27.1554 24.5727 26.9736 25.4656 26.7919 26.3584C26.7818 26.4007 26.7616 26.4377 26.7464 26.4852C26.4132 26.332 26.0901 26.1682 25.7619 26.0309C24.8986 25.661 23.803 25.8459 23.1214 26.723C22.5055 27.5155 22.3035 28.44 22.2379 29.4174C22.1925 30.0673 22.2379 30.7065 22.4853 31.33C22.869 32.3074 23.7475 32.8832 24.7572 32.6825C25.2268 32.5979 25.6812 32.4025 26.1507 32.2493Z" fill="white"/>
<path d="M37.6063 13.129C37.5356 13.5886 37.4699 14.0219 37.4094 14.4498C37.3538 14.8302 37.3033 15.2159 37.2629 15.6016C37.2427 15.7812 37.1973 15.9133 37.0055 15.9661C36.233 16.1669 35.4605 16.3993 34.6477 16.2937C34.1277 16.2303 33.6278 16.0559 33.2744 15.6544C32.8503 15.1736 32.6534 14.5608 32.613 13.9056C32.5625 13.092 32.7039 12.2942 32.8301 11.4965C32.9816 10.5613 33.0876 9.62091 33.2239 8.68049C33.3047 8.1416 33.4057 7.60799 33.4915 7.0691C33.7137 5.63733 33.9308 4.21085 34.1479 2.77909C34.2084 2.37228 34.264 1.96547 34.3347 1.55866C34.3448 1.49526 34.4255 1.40016 34.476 1.40016C35.4252 1.38959 36.3744 1.39488 37.3639 1.39488C37.2528 2.03415 37.1418 2.64172 37.0307 3.28628C37.5356 3.28628 38.0354 3.28628 38.5807 3.28628C38.4343 4.33237 38.2979 5.3309 38.1515 6.37699C37.6466 6.37699 37.1367 6.37699 36.6016 6.37699C36.4804 7.18004 36.3744 7.9514 36.2532 8.72276C36.0916 9.76356 35.9149 10.7991 35.7635 11.8399C35.7079 12.215 35.6625 12.6007 35.9604 12.9335C36.1623 13.1607 36.4097 13.1607 36.647 13.1765C36.9499 13.1871 37.2427 13.1448 37.6063 13.129Z" fill="white"/>
<path d="M50.1726 3.30705C51.0914 3.30705 51.9851 3.30705 52.9241 3.30705C52.8434 3.91462 52.7626 4.50106 52.6818 5.0875C52.6969 5.09807 52.707 5.10864 52.7222 5.1192C52.8837 4.88674 53.0403 4.65428 53.2069 4.4271C53.7319 3.70857 54.3125 3.09572 55.2819 3.18553C55.3627 3.19081 55.4435 3.20666 55.4839 3.21195C55.1052 4.43238 54.7265 5.63696 54.3529 6.83626C54.3782 6.85211 54.3984 6.86268 54.4236 6.87853C54.3479 6.88381 54.2772 6.89438 54.2015 6.88909C53.5906 6.86796 53.1816 7.21137 52.9393 7.75027C52.5808 8.5586 52.3839 9.41978 52.2527 10.2968C52.187 10.73 52.0709 11.1527 52.0053 11.5859C51.7831 13.0494 51.5711 14.5181 51.3489 16.0027C50.3392 16.0027 49.3446 16.0027 48.3096 16.0027C48.9306 11.7708 49.5516 7.5495 50.1726 3.30705Z" fill="white"/>
<path d="M81.6973 3.25405C81.1722 4.40052 80.7733 5.58925 80.5815 6.88894C80.4755 6.88894 80.3795 6.88365 80.2786 6.88894C79.7131 6.90479 79.3496 7.2165 79.1072 7.73426C78.5721 8.89129 78.4105 10.1434 78.2086 11.385C78.1278 11.8975 78.0218 12.4047 77.9511 12.9171C77.8097 13.8893 77.6886 14.8614 77.5472 15.8335C77.5371 15.9022 77.4462 16.0184 77.3957 16.0184C76.4365 16.029 75.4822 16.029 74.4775 16.029C74.5381 15.5852 74.5886 15.1731 74.6492 14.761C74.8158 13.5987 74.9774 12.4311 75.149 11.2688C75.2298 10.714 75.3358 10.1646 75.4166 9.60981C75.6388 8.14635 75.8508 6.67761 76.0679 5.20886C76.1487 4.64355 76.2244 4.07824 76.3203 3.51822C76.3355 3.43368 76.4365 3.3016 76.497 3.3016C77.3452 3.28575 78.1934 3.29104 79.082 3.29104C78.9911 3.89861 78.9053 4.47449 78.8195 5.05564C78.8447 5.06621 78.8649 5.07149 78.8902 5.08206C79.1073 4.77563 79.3193 4.4692 79.5465 4.17334C80.0261 3.53935 80.6118 3.10612 81.4347 3.18009C81.4953 3.18537 81.5508 3.18537 81.6114 3.19594C81.6215 3.20122 81.6417 3.22235 81.6973 3.25405Z" fill="white"/>
<path d="M41.7211 22.9079C41.6605 23.489 41.605 24.0385 41.5494 24.5879C41.5646 24.5985 41.5797 24.6038 41.5949 24.6143C41.7009 24.4611 41.8019 24.2974 41.9231 24.1547C42.231 23.7796 42.5138 23.3622 42.8773 23.0505C43.2408 22.7335 43.7002 22.649 44.2051 22.7916C44.1647 22.9237 44.1395 23.0347 44.094 23.135C43.6346 24.1336 43.3821 25.2008 43.1852 26.2786C43.16 26.4107 43.1247 26.4741 42.9833 26.4846C42.2159 26.5427 41.8271 26.8703 41.6302 27.6417C41.4384 28.3866 41.2364 29.1315 41.1052 29.8923C40.9083 31.0229 40.7618 32.1694 40.6003 33.3053C40.5044 33.9763 40.4185 34.6473 40.3377 35.3182C40.3125 35.5348 40.2368 35.6352 40.0045 35.6299C39.2573 35.6141 38.505 35.6247 37.7578 35.6247C37.4549 35.6247 37.4549 35.6141 37.5003 35.2865C37.6619 34.0925 37.8083 32.8985 37.9699 31.7098C38.1415 30.4576 38.3283 29.2055 38.5 27.9534C38.7221 26.3525 38.9443 24.7517 39.1563 23.1509C39.1816 22.9448 39.2573 22.892 39.4441 22.892C40.1257 22.9026 40.8073 22.8973 41.4889 22.8973C41.5595 22.8867 41.6252 22.8973 41.7211 22.9079Z" fill="white"/>
<path d="M93.5416 16.1878C92.4814 16.1878 91.7342 15.2633 91.7039 14.2225C91.6736 13.1711 92.5622 12.1567 93.5164 12.1831C94.5514 12.2148 95.339 12.9967 95.3592 14.1855C95.3743 15.2368 94.6423 16.172 93.5416 16.1878ZM93.5467 12.6903C92.7136 12.6428 92.1431 13.3983 92.1431 14.2013C92.1431 15.0255 92.7843 15.7388 93.5265 15.744C94.2232 15.7546 94.93 15.0889 94.925 14.196C94.925 13.3507 94.304 12.6428 93.5467 12.6903Z" fill="white"/>
<path d="M92.8748 32.8247C93.4503 32.8247 94.0107 32.8247 94.5661 32.8247C94.6772 33.184 94.6368 33.2474 94.2884 33.2526C93.9249 33.2579 93.9249 33.2579 93.9249 33.6278C93.9249 34.1297 93.9198 34.6263 93.9249 35.1282C93.9249 35.2761 93.9047 35.3607 93.7381 35.3554C93.5866 35.3501 93.5058 35.3184 93.5058 35.1335C93.5109 34.6157 93.4957 34.098 93.5159 33.5802C93.526 33.3055 93.4301 33.2315 93.1827 33.2421C92.8344 33.2632 92.8243 33.2421 92.8748 32.8247Z" fill="white"/>
<path d="M93.264 14.4181C93.264 14.6189 93.264 14.8144 93.264 15.0099C92.9611 15.0891 92.9409 15.0785 92.9358 14.8038C92.9308 14.323 92.9358 13.8423 92.9358 13.3351C93.2438 13.3351 93.5215 13.3034 93.7891 13.3509C93.9254 13.372 94.097 13.5147 94.1526 13.6468C94.2283 13.8423 94.2334 14.0853 94.0213 14.2385C93.986 14.2649 93.9607 14.2913 93.9304 14.3177C94.0213 14.5502 94.1071 14.7774 94.198 15.0151C93.9506 15.0944 93.7891 15.0944 93.7234 14.8197C93.7032 14.7457 93.6528 14.677 93.6326 14.603C93.5922 14.4076 93.4811 14.3442 93.264 14.4181ZM93.2691 14.1328C93.4559 14.0853 93.6275 14.0536 93.784 13.9902C93.8143 13.9796 93.8143 13.7577 93.7891 13.7472C93.6326 13.6838 93.4609 13.6521 93.2741 13.6098C93.2691 13.8053 93.2691 13.9321 93.2691 14.1328Z" fill="white"/>
</svg>
