<svg width="81" height="37" viewBox="0 0 81 37" fill="none" xmlns="http://www.w3.org/2000/svg">
<path d="M46.1361 36.9831C45.95 36.9316 45.7557 36.8716 45.5695 36.8201C44.8006 36.6141 44.0236 36.4168 43.2546 36.2194C43.0442 36.1594 42.947 36.0392 42.9875 35.7818C43.1575 34.7006 43.3194 33.6109 43.4894 32.5211C43.4975 32.4525 43.5379 32.3924 43.5703 32.298C43.975 32.4782 44.3554 32.6499 44.7359 32.8215C45.95 33.3363 47.2127 33.5337 48.4996 33.3621C48.9691 33.302 49.4547 33.1218 49.8513 32.8558C50.6041 32.3581 50.6607 31.3971 49.9889 30.7878C49.568 30.4017 49.05 30.1186 48.5725 29.8182C47.8926 29.3806 47.1641 29.0202 46.5247 28.5397C43.6189 26.3516 44.5578 22.9193 46.2495 21.3405C47.4231 20.2336 48.8315 19.7102 50.3613 19.5128C51.9477 19.2983 53.5099 19.4613 55.0316 20.0019C55.2339 20.0705 55.412 20.1306 55.3634 20.4309C55.1854 21.5035 55.0316 22.5761 54.8616 23.6487C54.8535 23.683 54.8211 23.7173 54.7887 23.786C54.6673 23.7345 54.5459 23.683 54.4245 23.6315C53.1537 23.0652 51.8344 22.825 50.4746 23.0995C50.0861 23.1768 49.6814 23.3999 49.3657 23.6659C48.8639 24.0863 48.8639 24.7299 49.3171 25.2018C49.5923 25.485 49.9161 25.7338 50.256 25.9397C50.7983 26.283 51.373 26.5661 51.9315 26.8922C52.1662 27.0295 52.401 27.1754 52.6276 27.3384C55.4282 29.3205 55.5496 33.1647 52.8866 35.3699C51.9072 36.1765 50.7741 36.6141 49.5599 36.8372C49.3414 36.8801 49.1229 36.9488 48.9043 37.0003C47.9735 36.9831 47.0508 36.9831 46.1361 36.9831Z" fill="white"/>
<path d="M0 1.02991C0.849882 0.88404 1.70786 0.755329 2.55774 0.592296C2.85722 0.532231 2.95435 0.626619 3.01101 0.935524C3.63426 4.41929 4.27369 7.89448 4.91313 11.3782C4.93741 11.4984 4.96979 11.6185 5.01835 11.8673C5.13167 11.6442 5.19642 11.5155 5.26118 11.3868C6.87191 7.9717 8.49073 4.56516 10.0934 1.14146C10.2552 0.789652 10.4414 0.669522 10.8056 0.686684C11.5422 0.721007 12.2869 0.695264 13.1044 0.695264C13.0234 0.88404 12.9749 1.02133 12.9101 1.15004C10.5709 5.85227 8.22362 10.5545 5.89252 15.2653C5.75492 15.5485 5.59304 15.6514 5.29355 15.6429C4.70268 15.6171 4.10372 15.6085 3.51285 15.6429C3.13242 15.6686 3.00292 15.5141 2.93007 15.1452C2.17732 11.4726 1.41647 7.81725 0.639435 4.16187C0.437082 3.20083 0.218541 2.24837 0 1.28733C0 1.20153 0 1.11572 0 1.02991Z" fill="white"/>
<path d="M63.0533 0C62.8672 1.22704 62.6729 2.45408 62.4867 3.68112C61.9363 7.46521 61.3779 11.2493 60.8517 15.042C60.7951 15.4624 60.6494 15.5997 60.2609 15.5654C59.8319 15.5311 59.3948 15.5482 58.9658 15.5568C58.7392 15.5654 58.6501 15.4624 58.6582 15.2222C58.6663 14.9133 58.6582 14.5958 58.6582 14.1839C58.4964 14.3298 58.383 14.4156 58.2859 14.51C57.4846 15.2565 56.578 15.7542 55.4853 15.7799C53.9151 15.8142 52.7738 14.9304 52.4986 13.2915C52.102 10.9318 52.531 8.71799 53.9879 6.83882C55.3882 5.01971 57.266 4.75371 59.3139 5.26855C59.4515 5.30288 59.5971 5.34578 59.7833 5.39726C59.9047 4.59926 60.018 3.84416 60.1233 3.08905C60.2366 2.32537 60.358 1.56169 60.447 0.798005C60.4794 0.506262 60.5927 0.386132 60.8679 0.343228C61.4345 0.257421 62.0011 0.12013 62.5596 0.0085807C62.7296 0 62.8915 0 63.0533 0ZM54.8621 11.3609C54.8702 11.5325 54.8702 11.7384 54.9026 11.9272C55.0806 13.1542 55.8819 13.7034 57.007 13.3602C57.7031 13.1456 58.2373 12.6651 58.7311 12.1331C58.7877 12.0645 58.8282 11.9615 58.8444 11.8671C59.0467 10.5285 59.241 9.18135 59.4191 7.84276C59.4353 7.73121 59.3462 7.5167 59.2572 7.47379C58.0512 6.89889 56.4323 6.83024 55.5339 8.52922C55.0806 9.40445 54.9026 10.3483 54.8621 11.3609Z" fill="white"/>
<path d="M80.9411 7.80849C80.844 7.96294 80.7387 8.10882 80.6659 8.27185C79.4194 10.8375 78.181 13.4117 76.9264 15.9687C76.7241 16.3892 76.4812 16.7839 76.2222 17.17C75.5099 18.2169 74.5225 18.603 73.3326 18.5258C73.0655 18.5086 72.9117 18.4142 72.9279 18.0882C72.9522 17.6935 72.936 17.2988 72.936 16.8783C73.2598 16.8955 73.5431 16.9298 73.8183 16.9212C74.7653 16.8955 75.4209 16.0116 75.2186 15.0334C74.7653 12.7939 74.3201 10.5629 73.8668 8.32333C73.8345 8.17746 73.8183 8.02301 73.7859 7.81707C74.393 7.73126 74.9676 7.63688 75.5423 7.59397C75.6233 7.58539 75.769 7.82565 75.7932 7.97152C76.0361 9.37876 76.2546 10.786 76.4812 12.1932C76.5217 12.4507 76.5784 12.7081 76.6431 13.077C76.7645 12.8282 76.8293 12.6909 76.894 12.5536C77.5739 11.0434 78.2538 9.53321 78.9176 8.02301C79.039 7.74843 79.1766 7.63688 79.468 7.64546C79.9536 7.66262 80.4393 7.63688 80.9249 7.6283C80.9411 7.69694 80.9411 7.74843 80.9411 7.80849Z" fill="white"/>
<path d="M54.5059 36.7342C54.5868 36.5111 54.6354 36.3652 54.692 36.2279C56.6508 31.2682 58.6177 26.3172 60.5522 21.349C60.9812 20.242 61.7015 19.71 62.8185 19.7272C63.7655 19.7444 64.7044 19.7444 65.6515 19.7186C65.9752 19.71 66.0643 19.8559 66.1209 20.1477C66.8251 23.743 67.5374 27.3383 68.2416 30.9336C68.6058 32.7785 68.97 34.6233 69.3343 36.4767C69.3424 36.5282 69.3424 36.5883 69.3505 36.6998C69.2129 36.717 69.0915 36.7342 68.962 36.7342C67.9502 36.7342 66.9384 36.717 65.9267 36.7427C65.5948 36.7513 65.4815 36.614 65.4329 36.2965C65.3358 35.7045 65.1982 35.121 65.093 34.5289C65.0525 34.2887 64.9473 34.1943 64.7125 34.1943C63.1504 34.1943 61.5882 34.1771 60.018 34.1857C59.8804 34.1857 59.678 34.3573 59.6294 34.4946C59.3785 35.1296 59.1843 35.7817 58.9495 36.4167C58.901 36.5454 58.7391 36.7084 58.6258 36.7084C57.274 36.7427 55.9304 36.7342 54.5059 36.7342ZM64.3402 30.6762C63.9355 28.5911 63.5389 26.5746 63.1423 24.5581C63.1099 24.5581 63.0775 24.5667 63.0452 24.5667C62.3491 26.5918 61.6449 28.6168 60.9326 30.6848C62.0981 30.6762 63.1828 30.6762 64.3402 30.6762Z" fill="white"/>
<path d="M28.1597 28.6598C28.3297 29.4835 28.4997 30.2987 28.6858 31.234C28.783 30.9765 28.8396 30.8307 28.8963 30.6676C30.1185 27.1667 31.3488 23.6744 32.5629 20.1734C32.6762 19.8388 32.8219 19.7101 33.17 19.7187C34.3193 19.7444 35.4606 19.7272 36.61 19.7272C36.7557 19.7272 36.9014 19.7272 37.1037 19.7272C37.0309 19.9418 36.9904 20.0876 36.9337 20.2249C34.8778 25.5707 32.8219 30.9165 30.7741 36.2708C30.6527 36.5969 30.4989 36.7256 30.159 36.717C28.961 36.6913 27.755 36.7085 26.5571 36.7085C26.3305 36.7085 26.1848 36.6741 26.12 36.3996C24.9383 31.6201 23.7484 26.8321 22.5586 22.0526C22.7043 22.1041 22.8743 22.1213 22.9957 22.1985C24.3555 23.1252 25.5615 24.2321 26.4923 25.6308C27.1237 26.6004 27.6093 27.6558 28.1597 28.6598Z" fill="white"/>
<path d="M42.9475 19.7185C42.7775 20.8511 42.6156 21.9152 42.4618 22.9706C41.7981 27.3467 41.1344 31.7229 40.4545 36.0905C40.3412 36.837 40.4383 36.7255 39.7341 36.734C38.7223 36.7426 37.7106 36.734 36.6988 36.734C36.5531 36.734 36.4074 36.734 36.2051 36.734C36.3427 35.7816 36.4722 34.8978 36.6098 34.0139C37.3059 29.4662 37.9939 24.927 38.69 20.3792C38.8114 19.6069 38.6981 19.7185 39.4346 19.7185C40.4302 19.7099 41.4339 19.7185 42.4295 19.7185C42.5832 19.7185 42.7289 19.7185 42.9475 19.7185Z" fill="white"/>
<path d="M18.9159 12.4849C18.9159 13.1542 18.9321 13.7291 18.9078 14.2955C18.8997 14.4156 18.7864 14.5786 18.6731 14.6473C17.1271 15.5997 15.4678 15.9945 13.6952 15.6684C11.9307 15.3509 10.8865 14.1753 10.7246 12.2447C10.5628 10.3312 10.9675 8.53782 12.1087 7.00188C13.3067 5.3887 14.9012 4.71941 16.8276 4.99399C18.3655 5.20851 19.4096 6.34116 19.5796 8.0573C19.6524 8.85531 19.5472 9.67906 19.5229 10.4856C19.5149 10.8031 19.353 10.8804 19.0697 10.8718C17.2728 10.8632 15.484 10.8632 13.6871 10.8632C13.1205 10.8632 13.1205 10.8632 13.1286 11.4467C13.1448 12.8968 13.8813 13.7034 15.2492 13.7463C16.3824 13.7806 17.3942 13.3859 18.3574 12.811C18.5193 12.7252 18.6812 12.6308 18.9159 12.4849ZM13.42 9.24144C13.6385 9.24144 13.7842 9.24144 13.9299 9.24144C14.7636 9.24144 15.5973 9.24144 16.431 9.24144C17.4428 9.24144 17.4428 9.24144 17.2566 8.16885C17.03 6.86458 15.8887 6.31542 14.8041 7.01046C14.0351 7.49098 13.6871 8.27182 13.42 9.24144Z" fill="white"/>
<path d="M50.9124 12.4933C50.9124 13.1454 50.9286 13.7031 50.9043 14.2609C50.8962 14.3896 50.7991 14.5612 50.7019 14.6299C49.1236 15.6081 47.4238 16.0199 45.6107 15.6424C43.8867 15.2906 42.8749 14.1064 42.7373 12.2616C42.5673 10.0563 43.0773 8.04846 44.5909 6.44387C45.7726 5.18251 47.2457 4.72773 48.8969 5.00231C50.5158 5.26832 51.5275 6.5211 51.6328 8.42602C51.6651 9.07815 51.5761 9.73886 51.5437 10.391C51.5275 10.76 51.3656 10.8887 51.0014 10.8801C49.2045 10.8629 47.4157 10.8801 45.6188 10.8629C45.2222 10.8544 45.1089 10.9916 45.117 11.4035C45.1575 12.9652 45.9345 13.7718 47.4076 13.7632C48.4922 13.7546 49.4635 13.3599 50.3944 12.8022C50.54 12.7078 50.6857 12.622 50.9124 12.4933ZM45.4246 9.24118C45.6512 9.24118 45.7888 9.24118 45.9345 9.24118C46.8087 9.24118 47.6909 9.24118 48.5651 9.24118C49.3907 9.24118 49.3907 9.24118 49.2855 8.34879C49.2045 7.71382 49.0184 7.13033 48.4032 6.86433C47.7476 6.58116 47.1243 6.70987 46.5739 7.16465C45.9669 7.67091 45.6512 8.37453 45.4246 9.24118Z" fill="white"/>
<path d="M33.5747 7.26755C33.0728 7.26755 32.6438 7.26755 32.1582 7.26755C32.2553 6.58968 32.3363 5.97187 32.4496 5.36264C32.4658 5.27683 32.6034 5.17386 32.6924 5.1567C32.8786 5.12238 33.0647 5.14812 33.259 5.14812C34.0118 5.13954 33.8499 5.22534 33.9875 4.47024C34.0765 3.94682 34.1251 3.4234 34.2384 2.90855C34.546 1.51848 35.3635 0.634667 36.6828 0.360084C37.3303 0.222793 38.0183 0.265697 38.6902 0.248535C38.7954 0.248535 38.9815 0.402988 38.9896 0.488795C39.0139 1.09802 39.0058 1.70726 39.0058 2.31648C38.6416 2.31648 38.3097 2.3079 37.9779 2.31648C37.1442 2.33365 36.7071 2.7112 36.5533 3.57785C36.4643 4.06695 36.4076 4.56463 36.3267 5.13954C36.8366 5.13954 37.3061 5.1567 37.7674 5.13096C38.1074 5.11379 38.2207 5.23392 38.1964 5.59431C38.1721 6.03193 38.1802 6.47813 38.1964 6.92432C38.2045 7.19032 38.0993 7.27613 37.8646 7.27613C37.3627 7.26755 36.869 7.28471 36.3671 7.26755C36.0919 7.25897 35.9948 7.37052 35.9543 7.6451C35.6063 10.0906 35.2421 12.5275 34.9102 14.9816C34.8454 15.4278 34.7079 15.5823 34.2789 15.5565C33.6637 15.5136 33.0486 15.5479 32.3848 15.5479C32.7734 12.7678 33.17 10.0563 33.5747 7.26755Z" fill="white"/>
<path d="M68.7514 3.7666C68.5248 5.35403 68.3063 6.87282 68.0796 8.47741C68.2658 8.34012 68.3872 8.24573 68.5005 8.15992C69.1399 7.68798 69.836 7.42198 70.6293 7.51637C71.5925 7.6365 72.2886 8.20283 72.4909 9.20677C72.8632 11.0945 72.5314 12.8536 71.3173 14.338C70.5483 15.2819 69.488 15.668 68.3386 15.6251C67.4159 15.5908 66.5013 15.3763 65.5866 15.239C65.3195 15.1961 65.2548 15.0416 65.2952 14.7585C65.8052 11.3176 66.2989 7.86818 66.7927 4.41874C66.8331 4.15273 66.9383 4.0326 67.1974 3.99828C67.6992 3.95538 68.1848 3.86099 68.7514 3.7666ZM68.3872 14.0463C69.3423 14.0549 70.0303 13.6001 70.3622 12.6562C70.5483 12.1414 70.6616 11.5836 70.7102 11.043C70.775 10.4081 70.7264 9.73877 70.1193 9.38696C69.5204 9.04374 68.9619 9.30974 68.4681 9.68729C68.1606 9.91897 67.8125 10.1249 67.7639 10.614C67.6749 11.4034 67.5373 12.1929 67.4321 12.9823C67.3026 13.9433 67.3673 14.0205 68.3143 14.0463C68.3305 14.0463 68.3629 14.0463 68.3872 14.0463Z" fill="white"/>
<path d="M23.9179 7.07054C24.5816 6.20389 25.3263 5.44879 26.3623 5.11414C26.6375 5.02833 26.937 4.98543 27.3255 4.9082C27.3255 5.76627 27.3336 6.54712 27.3093 7.31938C27.3093 7.39661 27.107 7.51674 26.9856 7.5339C25.7714 7.73126 24.7192 8.28042 23.8774 9.2243C23.6913 9.43882 23.5456 9.74772 23.497 10.0309C23.2299 11.7213 22.9871 13.4203 22.7523 15.1192C22.7119 15.4281 22.6147 15.5654 22.2991 15.5483C21.6273 15.5225 20.9554 15.5397 20.2432 15.5397C20.3889 14.5272 20.5184 13.5833 20.656 12.6394C20.9959 10.2797 21.3521 7.92003 21.6839 5.56034C21.7244 5.24285 21.8296 5.11414 22.1372 5.1313C22.5824 5.15704 23.0275 5.14846 23.4727 5.1313C23.7317 5.12272 23.837 5.21711 23.8289 5.50027C23.8127 6.00653 23.8208 6.51279 23.8208 7.02764C23.8531 7.0448 23.8855 7.06196 23.9179 7.07054Z" fill="white"/>
<path d="M27.3096 15.5483C27.3339 15.3166 27.3419 15.1536 27.3662 14.9905C27.8195 11.8414 28.2809 8.69231 28.7341 5.53461C28.7746 5.23428 28.8879 5.12274 29.1712 5.13132C29.843 5.15706 30.5148 5.14848 31.2433 5.14848C31.1219 5.98081 31.0167 6.75307 30.9115 7.52533C30.5472 10.0566 30.1668 12.5794 29.8107 15.1107C29.7621 15.4539 29.6488 15.5655 29.325 15.5569C28.6694 15.5311 28.0138 15.5483 27.3096 15.5483Z" fill="white"/>
<path d="M38.0264 15.5482C38.1721 14.5099 38.3097 13.566 38.4473 12.6221C38.7872 10.2796 39.1353 7.93707 39.459 5.58596C39.5076 5.21699 39.6452 5.11402 39.977 5.13118C40.6165 5.15693 41.264 5.13976 41.9682 5.13976C41.9277 5.45725 41.8954 5.72325 41.863 5.98067C41.4259 9.01824 40.9807 12.0558 40.5517 15.0934C40.5032 15.4538 40.3737 15.5653 40.0337 15.5567C39.3862 15.531 38.7467 15.5482 38.0264 15.5482Z" fill="white"/>
<path d="M28.159 28.6596C27.6086 27.6557 27.123 26.5917 26.4916 25.6478C25.5608 24.2492 24.3548 23.1422 22.995 22.2155C22.8736 22.1297 22.7036 22.1126 22.5579 22.0697C22.4284 21.9495 22.3232 21.7779 22.1775 21.7093C20.9795 21.1773 19.7654 20.6624 18.5594 20.1304C18.438 20.0789 18.3409 19.9674 18.2275 19.8902C18.349 19.8387 18.4785 19.7443 18.5999 19.7443C20.7286 19.7357 22.8574 19.7271 24.9861 19.7443C26.0384 19.7529 26.613 20.2591 26.8154 21.3575C27.2606 23.7086 27.6977 26.0597 28.1347 28.4108C28.159 28.488 28.159 28.5738 28.159 28.6596Z" fill="#FBB03B"/>
<path d="M41.4419 0.429307C42.1785 0.420726 42.6965 0.926987 42.7208 1.66493C42.7451 2.58306 41.9762 3.38965 41.0615 3.40681C40.3169 3.42397 39.7826 2.91771 39.7584 2.19693C39.7341 1.25305 40.5111 0.437887 41.4419 0.429307Z" fill="white"/>
<path d="M31.9714 1.71646C31.9633 2.89201 30.7573 3.7415 29.7293 3.29531C29.1547 3.04646 28.9037 2.42865 29.0899 1.72504C29.3084 0.884127 30.1421 0.30922 30.9516 0.43793C31.5748 0.540899 31.9795 1.03858 31.9714 1.71646Z" fill="white"/>
</svg>
