<svg width="140" height="45" viewBox="0 0 140 45" fill="none" xmlns="http://www.w3.org/2000/svg">
<path d="M17.024 7.63569C14.8213 7.66637 12.8388 8.09587 11.0766 8.89352C9.34592 9.69117 8.08721 10.8876 7.30052 12.4829V29.3256H0V1.46925H6.70263V7.42094C7.20611 6.4699 7.804 5.61089 8.49629 4.84392C9.18858 4.07695 9.94381 3.43269 10.7305 2.8498C11.5172 2.29758 12.3354 1.8374 13.1535 1.56129C13.9717 1.2545 14.7584 1.1011 15.5136 1.1011C15.9227 1.1011 16.2059 1.1011 16.4262 1.1011C16.615 1.1011 16.8038 1.13178 16.9926 1.16246V7.63569H17.024Z" fill="#212529"/>
<path d="M31.3738 29.8473C29.0767 29.8473 26.9998 29.4791 25.1432 28.7122C23.2866 27.9452 21.7132 26.9021 20.3916 25.5829C19.0699 24.2637 18.063 22.7605 17.3707 21.0118C16.6469 19.2631 16.3008 17.453 16.3008 15.551C16.3008 13.5568 16.6469 11.6854 17.3392 9.93673C18.0315 8.18804 19.0385 6.6541 20.3287 5.30423C21.6188 3.95436 23.2237 2.91128 25.1118 2.14431C26.9998 1.37734 29.0767 0.978516 31.4053 0.978516C33.7339 0.978516 35.8108 1.37734 37.6359 2.14431C39.461 2.91128 41.0344 3.95436 42.3246 5.27355C43.6148 6.59274 44.5903 8.096 45.2826 9.84469C45.9434 11.5934 46.2895 13.4034 46.2895 15.2748C46.2895 15.735 46.2895 16.1645 46.2581 16.594C46.2266 17.0235 46.1951 17.361 46.1322 17.6678H24.0418C24.1363 18.7722 24.4195 19.754 24.86 20.5823C25.3006 21.4413 25.867 22.1469 26.5593 22.7605C27.2516 23.3741 28.0383 23.8342 28.8879 24.141C29.769 24.4478 30.6815 24.6319 31.6256 24.6319C33.0731 24.6319 34.4577 24.2944 35.7478 23.5888C37.038 22.8832 37.9191 21.9935 38.3911 20.8584L45.314 20.8891C43.8665 24.2024 41.9155 26.4419 39.6184 27.7918C37.3212 29.1723 34.5521 29.8473 31.3738 29.8473ZM38.7687 13.0353C38.5799 10.9491 37.7933 9.2618 36.4087 8.00396C35.0241 6.74613 33.3248 6.10188 31.3109 6.10188C30.3354 6.10188 29.4228 6.25527 28.5732 6.59274C27.7236 6.93021 26.9683 7.39039 26.3075 8.00396C25.6467 8.61754 25.1117 9.32315 24.7027 10.1822C24.2936 11.0412 24.0418 11.9615 23.9789 13.0046H38.7687V13.0353Z" fill="#212529"/>
<path d="M63.4708 29.8474C61.1422 29.8474 59.0654 29.4486 57.2088 28.6816C55.3522 27.9147 53.7788 26.8409 52.4886 25.5217C51.1984 24.2025 50.2229 22.6686 49.5306 20.9199C48.8383 19.1712 48.4922 17.3611 48.4922 15.4591C48.4922 13.4956 48.8383 11.6549 49.5306 9.93687C50.2229 8.18818 51.1984 6.65424 52.4886 5.33505C53.7788 4.01586 55.3522 2.9421 57.2088 2.17513C59.0654 1.40816 61.1422 1.00934 63.4708 1.00934C65.7994 1.00934 67.8763 1.40816 69.7014 2.17513C71.5266 2.9421 73.1 4.01586 74.3901 5.33505C75.6803 6.65424 76.6558 8.18818 77.3481 9.93687C78.0404 11.6856 78.3865 13.5263 78.3865 15.4591C78.3865 17.3611 78.0404 19.2019 77.3481 20.9199C76.6558 22.6686 75.6803 24.2025 74.3901 25.5217C73.1314 26.8409 71.558 27.9147 69.7014 28.6816C67.8763 29.4486 65.7994 29.8474 63.4708 29.8474ZM55.9815 15.4284C55.9815 16.6555 56.1703 17.7907 56.5479 18.8031C56.9255 19.8155 57.4605 20.7051 58.1213 21.4414C58.7821 22.1777 59.5688 22.7606 60.4814 23.1594C61.394 23.5583 62.3695 23.773 63.4394 23.773C64.4778 23.773 65.4848 23.5583 66.3973 23.1594C67.3099 22.7606 68.0966 22.1777 68.7574 21.4414C69.4182 20.7051 69.9532 19.8155 70.3308 18.7724C70.7084 17.76 70.8972 16.6249 70.8972 15.367C70.8972 14.1706 70.7084 13.0354 70.3308 12.023C69.9532 11.0106 69.4182 10.1209 68.7574 9.35398C68.0966 8.61768 67.2784 8.03479 66.3973 7.63596C65.4848 7.23714 64.5093 7.02239 63.4394 7.02239C62.3695 7.02239 61.394 7.23714 60.4814 7.66664C59.5688 8.09614 58.7821 8.67904 58.1213 9.41533C57.4605 10.1516 56.9255 11.0413 56.5479 12.0844C56.1703 13.1275 55.9815 14.2319 55.9815 15.4284Z" fill="#212529"/>
<path d="M62.6837 27.0862L56.7363 28.4974C56.8937 28.5587 57.0195 28.6201 57.1769 28.6815C59.0335 29.4484 61.1103 29.8473 63.439 29.8473C63.5963 29.8473 63.7222 29.8473 63.8795 29.8473L64.2571 28.7428C64.6033 27.7918 63.7222 26.8407 62.6837 27.0862Z" fill="#212529"/>
<path d="M107.211 29.2951H99.9104V13.6795C99.9104 11.44 99.5013 9.81402 98.7146 8.80161C97.9279 7.78921 96.7951 7.26767 95.379 7.26767C94.6553 7.26767 93.9 7.42107 93.1448 7.69718C92.3896 7.97329 91.6658 8.37211 91.005 8.89365C90.3442 9.41519 89.7148 10.0288 89.1799 10.7344C88.6449 11.44 88.2359 12.2376 87.9841 13.066V29.3257H80.6836V1.46938H87.2918V6.62342C88.3303 4.84405 89.8722 3.4635 91.8861 2.48178C93.9 1.50006 96.1343 0.978516 98.6517 0.978516C100.445 0.978516 101.893 1.2853 103.026 1.92956C104.159 2.57381 105.04 3.40214 105.638 4.41454C106.267 5.45762 106.676 6.62342 106.928 7.91193C107.148 9.23112 107.274 10.5503 107.274 11.9002V29.2951H107.211Z" fill="#212529"/>
<path d="M125.084 29.8474C122.756 29.8474 120.679 29.4486 118.822 28.6816C116.965 27.9147 115.392 26.8409 114.102 25.5217C112.812 24.2025 111.836 22.6686 111.144 20.9199C110.452 19.1712 110.105 17.3611 110.105 15.4591C110.105 13.4956 110.452 11.6549 111.144 9.93687C111.836 8.18818 112.812 6.65424 114.102 5.33505C115.392 4.01586 116.965 2.9421 118.822 2.17513C120.679 1.40816 122.756 1.00934 125.084 1.00934C127.413 1.00934 129.49 1.40816 131.315 2.17513C133.14 2.9421 134.713 4.01586 136.003 5.33505C137.294 6.65424 138.269 8.18818 138.961 9.93687C139.654 11.6856 140 13.5263 140 15.4591C140 17.3611 139.654 19.2019 138.961 20.9199C138.269 22.6686 137.294 24.2025 136.003 25.5217C134.745 26.8409 133.171 27.9147 131.315 28.6816C129.49 29.4486 127.413 29.8474 125.084 29.8474ZM132.542 15.367C132.542 14.1706 132.353 13.0354 131.976 12.023C131.598 11.0106 131.063 10.1209 130.402 9.35398C129.741 8.61768 128.923 8.03479 128.042 7.63596C127.13 7.23714 126.154 7.02239 125.084 7.02239C124.014 7.02239 123.039 7.23714 122.126 7.66664C121.214 8.09614 120.427 8.67904 119.766 9.41533C119.105 10.1516 118.57 11.0413 118.193 12.0844C117.815 13.1275 117.626 14.2319 117.626 15.4284C117.626 16.6555 117.815 17.7907 118.193 18.8031C118.57 19.8155 119.105 20.7051 119.766 21.4414C120.427 22.1777 121.214 22.7606 122.126 23.1594C123.039 23.5583 124.014 23.773 125.084 23.773C126.123 23.773 127.13 23.5583 128.042 23.1594C128.955 22.7606 129.741 22.1777 130.402 21.4414C130.402 21.4414 131.629 20.337 132.133 18.619C132.762 16.993 132.542 15.367 132.542 15.367Z" fill="#212529"/>
<path d="M48.8694 29.6019C37.1949 37.6091 27.7231 34.8787 19.9191 29.2338C19.4786 28.927 19.0065 29.4485 19.2268 29.9394C24.5449 40.4622 40.4361 46.0458 51.733 38.6828L50.8834 44.3278C50.789 44.9413 51.6071 45.2174 51.9533 44.7266L63.2502 28.1293C63.8166 27.2703 63.2187 26.1352 62.1803 26.1045L46.6982 25.675C46.0688 25.6444 45.7541 26.3806 46.1632 26.8101L48.8694 29.6019Z" fill="#F83D13"/>
</svg>
